<svg width="32" height="32" viewBox="0 0 32 32" xmlns="http://www.w3.org/2000/svg">
  <defs>
    <!-- Main pie segment gradient -->
    <linearGradient id="mainGradient" x1="0%" y1="0%" x2="100%" y2="100%">
      <stop offset="0%" style="stop-color:#1e3a8a;stop-opacity:1" />
      <stop offset="50%" style="stop-color:#3b82f6;stop-opacity:1" />
      <stop offset="100%" style="stop-color:#1e40af;stop-opacity:1" />
    </linearGradient>
    
    <!-- Separated segment gradient -->
    <linearGradient id="separatedGradient" x1="0%" y1="0%" x2="100%" y2="100%">
      <stop offset="0%" style="stop-color:#40e0ff;stop-opacity:1" />
      <stop offset="100%" style="stop-color:#64c8ff;stop-opacity:1" />
    </linearGradient>
    
    <!-- Highlight gradient for 3D effect -->
    <linearGradient id="highlightGradient" x1="0%" y1="0%" x2="100%" y2="100%">
      <stop offset="0%" style="stop-color:#ffffff;stop-opacity:0.3" />
      <stop offset="50%" style="stop-color:#ffffff;stop-opacity:0.1" />
      <stop offset="100%" style="stop-color:#ffffff;stop-opacity:0" />
    </linearGradient>
    
    <!-- Shadow gradient -->
    <radialGradient id="shadowGradient" cx="50%" cy="50%" r="50%">
      <stop offset="0%" style="stop-color:#000000;stop-opacity:0.2" />
      <stop offset="100%" style="stop-color:#000000;stop-opacity:0" />
    </radialGradient>
  </defs>
  
  <!-- Background circle with subtle shadow -->
  <circle cx="16" cy="16" r="15" fill="url(#shadowGradient)"/>
  
  <!-- Main pie segment (3/4 of circle) -->
  <path d="M 16 16 L 16 2 A 14 14 0 1 1 2 16 Z" 
        fill="url(#mainGradient)" 
        stroke="#ffffff" 
        stroke-width="0.5"/>
  
  <!-- Separated segment (1/4 of circle, offset) -->
  <path d="M 16 16 L 2 16 A 14 14 0 0 1 16 2 Z" 
        fill="url(#separatedGradient)" 
        stroke="#ffffff" 
        stroke-width="0.5"
        transform="translate(2, 2)"/>
  
  <!-- 3D highlight overlay on main segment -->
  <path d="M 16 16 L 16 2 A 14 14 0 1 1 2 16 Z" 
        fill="url(#highlightGradient)"/>
  
  <!-- 3D highlight overlay on separated segment -->
  <path d="M 16 16 L 2 16 A 14 14 0 0 1 16 2 Z" 
        fill="url(#highlightGradient)"
        transform="translate(2, 2)"/>
  
  <!-- Center dot -->
  <circle cx="16" cy="16" r="1.5" fill="#ffffff" opacity="0.8"/>
</svg>
